<svg width="563" height="449" viewBox="0 0 563 449" fill="none" xmlns="http://www.w3.org/2000/svg">
<g clip-path="url(#clip0)">
<path opacity="0.1" d="M330.18 76.2372C294.556 74.9976 260.622 63.4885 228.224 50.8941C195.826 38.2997 163.736 24.3445 128.965 17.6726C106.601 13.3808 81.023 12.7748 63.0075 24.7742C45.6635 36.3439 40.0602 56.2602 37.0493 74.7607C34.7815 88.6774 33.4495 103.321 39.6638 116.351C43.9737 125.397 51.6302 133 56.9198 141.694C75.3426 171.841 62.325 209.019 42.3609 238.455C33.0037 252.267 22.1327 265.451 14.9111 280.139C7.68947 294.827 4.34287 311.68 10.6618 326.677C16.9312 341.552 31.8643 352.703 48.0359 360.554C80.8909 376.503 119.592 381.065 157.356 383.649C240.928 389.373 324.94 386.894 408.731 384.415C439.743 383.495 470.886 382.564 501.391 377.765C518.333 375.099 535.82 370.873 548.122 360.658C563.732 347.695 567.602 325.74 557.143 309.487C539.59 282.222 491.092 275.451 478.806 246.185C472.058 230.081 478.994 212.142 488.802 197.201C509.851 165.158 545.127 137.044 546.988 100.418C548.265 75.2566 531.301 50.0677 505.078 38.162C477.595 25.6392 439.473 27.2259 419.206 47.8805C398.323 69.1632 361.631 77.3281 330.18 76.2372Z" fill="#00C6FF"/>
<path d="M239.684 380.949L51.2834 380.029L32.5634 336.081L98.7579 331.272L87.2209 283.087L218.146 266.101L92.7747 222.478L103.849 219.844L305.444 252.763L294.342 327.96L278.473 369.286L239.684 380.949Z" fill="#00C6FF"/>
<path d="M54.1732 361.623C54.1732 361.623 65.7322 359.772 72.6675 367.947C72.6675 367.947 67.5816 371.958 56.6391 366.405L54.1732 361.623Z" fill="#00C6FF"/>
<path d="M52.9622 361.441C52.9622 361.441 45.5865 370.526 49.2193 380.641C49.2193 380.641 55.23 378.233 55.885 365.97L52.9622 361.441Z" fill="#00C6FF"/>
<path d="M46.3351 346.505C46.3351 346.505 50.9586 338.015 69.453 349.899C69.453 349.899 66.9871 355.606 58.8188 355.144C50.6504 354.681 48.4927 350.979 46.3351 346.505Z" fill="#00C6FF"/>
<path d="M45.1406 345.893C45.1406 345.893 35.5466 344.792 34.6164 366.774C34.6164 366.774 40.6987 368.036 45.0195 361.083C49.3404 354.13 47.568 350.229 45.1406 345.893Z" fill="#00C6FF"/>
<path d="M39.5538 328.357C39.5538 328.357 44.948 313.394 64.5212 324.038C64.5212 324.038 60.0517 337.767 41.5573 333.448L39.5538 328.357Z" fill="#00C6FF"/>
<path d="M33.5431 305.989C33.5431 305.989 43.715 290.871 61.747 304.887C61.747 304.887 55.4281 319.079 35.0843 311.366L33.5431 305.989Z" fill="#00C6FF"/>
<path d="M31.3854 284.701C31.3854 284.701 43.2526 270.812 61.1085 284.701C61.1085 284.701 49.8578 296.888 31.3854 288.249V284.701Z" fill="#00C6FF"/>
<path d="M29.536 264.024C29.536 264.024 41.5573 249.523 58.6646 263.253C58.6646 263.253 45.1021 276.057 29.536 267.418V264.024Z" fill="#00C6FF"/>
<path d="M30.6148 245.667C30.6148 245.667 43.2747 227.001 59.2811 239.651C59.2811 239.651 45.7186 255.694 30.6148 249.215V245.667Z" fill="#00C6FF"/>
<path d="M33.5431 224.224C33.5431 224.224 46.9515 205.713 62.5176 219.905C62.5176 219.905 46.6433 235.948 33.5431 227.618V224.224Z" fill="#00C6FF"/>
<path d="M38.0126 205.057C38.0126 205.057 53.8869 187.659 67.7357 194.59C67.7357 194.59 51.1953 213.068 37.319 209.674L38.0126 205.057Z" fill="#00C6FF"/>
<path d="M43.5609 186.887C43.5609 186.887 61.8791 165.577 72.5354 172.695C72.5354 172.695 59.0389 189.223 42.2619 190.876L43.5609 186.887Z" fill="#00C6FF"/>
<path d="M51.5696 165.814C51.5696 165.814 67.6036 148.416 79.3167 152.735C79.3167 152.735 65.6 170.784 49.4174 171.246L51.5696 165.814Z" fill="#00C6FF"/>
<path d="M58.8188 146.102C58.8188 146.102 76.5425 129.441 84.2485 132.372C84.2485 132.372 71.4566 150.884 58.0482 149.804L58.8188 146.102Z" fill="#00C6FF"/>
<path d="M65.9083 127.899C65.9083 127.899 81.1661 107.993 89.4941 109.536C89.4941 109.536 80.2414 127.282 65.9083 129.921V127.899Z" fill="#00C6FF"/>
<path d="M73.6032 103.354C73.6032 103.354 87.0887 88.0989 94.3764 88.132C94.3764 88.132 83.7311 108.517 73.0473 108.329L73.6032 103.354Z" fill="#00C6FF"/>
<path d="M78.1608 87.0136L91.1895 55.2355C91.1895 55.2355 91.839 83.9614 76.504 92.9086L78.1608 87.0136Z" fill="#00C6FF"/>
<path d="M83.4504 51.9685C83.4504 51.9685 85.6081 25.4298 84.221 23.2701C84.221 23.2701 93.5343 45.3352 83.3624 63.6924L83.4504 51.9685Z" fill="#00C6FF"/>
<path d="M39.0474 328.004C39.0474 328.004 25.5399 319.625 16.7935 340.125C16.7935 340.125 28.8149 348.114 40.6381 333.233L39.0474 328.004Z" fill="#00C6FF"/>
<path d="M33.1083 305.135C33.1083 305.135 16.5404 297.571 8.50412 318.975C8.50412 318.975 21.3016 327.79 34.6164 310.545L33.1083 305.135Z" fill="#00C6FF"/>
<path d="M30.6148 285.973C30.6148 285.973 18.7476 272.084 0.891693 285.973C0.891693 285.973 12.1424 298.16 30.6148 289.521V285.973Z" fill="#00C6FF"/>
<path d="M29.1287 264.024C29.1287 264.024 17.1073 249.523 0 263.253C0 263.253 13.5625 276.057 29.1287 267.418V264.024Z" fill="#00C6FF"/>
<path d="M30.6148 246.196C30.6148 246.196 22.1823 225.288 3.853 234.279C3.853 234.279 13.7607 252.818 29.8662 249.667L30.6148 246.196Z" fill="#00C6FF"/>
<path d="M34.6054 224.12C34.6054 224.12 26.2224 202.848 7.63443 212.71C7.63443 212.71 19.0173 232.208 33.7798 227.403L34.6054 224.12Z" fill="#00C6FF"/>
<path d="M39.8015 205.162C39.8015 205.162 36.4989 181.841 21.0869 179.753C21.0869 179.753 24.3565 204.347 37.7264 209.366L39.8015 205.162Z" fill="#00C6FF"/>
<path d="M43.9517 186.932C43.9517 186.932 42.6637 158.834 29.9213 157.853C29.9213 157.853 30.3506 179.18 42.5151 190.909L43.9517 186.932Z" fill="#00C6FF"/>
<path d="M52.8906 165.026C52.8906 165.026 49.0927 141.661 36.9282 138.807C36.9282 138.807 38.4364 161.434 51.6852 170.762L52.8906 165.026Z" fill="#00C6FF"/>
<path d="M60.2609 146.294C60.2609 146.294 60.1343 121.954 52.7035 118.378C52.7035 118.378 48.0964 140.416 58.1087 149.402L60.2609 146.294Z" fill="#00C6FF"/>
<path d="M66.4752 127.623C66.4752 127.623 65.4349 102.561 57.7399 99.0295C57.7399 99.0295 55.1089 118.863 65.3248 129.265L66.4752 127.623Z" fill="#00C6FF"/>
<path d="M74.6766 105.354C74.6766 105.354 74.6326 84.9696 69.1393 80.1874C69.1393 80.1874 63.679 102.517 71.8089 109.453L74.6766 105.354Z" fill="#00C6FF"/>
<path d="M77.5168 86.0109L72.1721 52.0842C72.1721 52.0842 64.912 79.8844 77.77 92.1373L77.5168 86.0109Z" fill="#00C6FF"/>
<path d="M78.5571 52.288C78.5571 52.288 64.8404 29.4792 65.1212 26.9449C65.1212 26.9449 66.5798 50.85 83.8357 62.7558L78.5571 52.288Z" fill="#00C6FF"/>
<path d="M80.1643 45.55C80.1643 45.55 67.2183 13.1549 61.3617 10.5325C61.3617 10.5325 79.8561 19.9425 81.2432 44.6245L80.1643 45.55Z" fill="#00C6FF"/>
<path d="M72.9813 108.522L72.0951 108.252C83.0211 72.59 85.7457 49.8529 79.7736 44.1507L80.4066 43.4785C86.742 49.4947 84.1715 71.984 72.9813 108.522Z" fill="#444053"/>
<path d="M42.8949 192.022L41.5849 191.554C42.7463 188.287 43.9957 184.97 45.3058 181.703C56.7106 153.253 66.4202 126.786 72.6455 106.467L73.7849 105.916C67.5486 126.273 58.0096 153.754 46.5938 182.243C45.2892 185.45 44.0453 188.75 42.8949 192.022Z" fill="#444053"/>
<path d="M70.4603 388.31C70.2842 388.117 52.5769 368.157 40.2308 334.081C32.9967 314.131 28.9708 293.159 28.303 271.947C27.4554 245.43 33.0147 215.823 42.5371 188.926L43.5719 190.138C22.1933 250.504 30.6864 302.232 41.9537 333.382C54.1677 367.149 71.6768 386.889 71.8474 387.087L70.4603 388.31Z" fill="#444053"/>
<path d="M347.172 345.932C347.172 345.932 334.693 361.176 344.601 384.222L244.974 427.471L235.413 429.476L231.009 410.193L233.954 385.858V372.559L347.172 345.932Z" fill="#D5D6DB"/>
<path d="M32.5634 336.081L170.457 310.92L353.171 340.053L239.684 380.95L32.5634 336.081Z" fill="#00C6FF"/>
<path d="M32.5634 336.081L170.457 310.92L353.171 340.053L239.684 380.95L32.5634 336.081Z" fill="#00C6FF"/>
<path d="M32.5633 336.076C32.5633 336.076 19.6668 360.532 34.5283 383.12L239.012 427.471C239.012 427.471 226.32 407.99 239.667 380.95L32.5633 336.076Z" fill="#00C6FF"/>
<path opacity="0.1" d="M32.5633 336.076C32.5633 336.076 19.6668 360.532 34.5283 383.12L239.012 427.471C239.012 427.471 226.32 407.99 239.667 380.95L32.5633 336.076Z" fill="black"/>
<path opacity="0.1" d="M38.6566 344.555C38.6566 344.555 31.2863 362.449 38.6566 374.03Z" fill="black"/>
<path d="M239.012 427.471L353.171 378.713C353.171 378.713 359.556 380.09 355.428 384.773C351.3 389.456 241.214 432.154 241.214 432.154L34.5284 383.12L239.012 427.471Z" fill="#00C6FF"/>
<path opacity="0.1" d="M239.012 427.471L353.171 378.713C353.171 378.713 359.556 380.09 355.428 384.773C351.3 389.456 241.214 432.154 241.214 432.154L34.5284 383.12L239.012 427.471Z" fill="black"/>
<path opacity="0.1" d="M229.655 385.875C229.655 385.875 218.647 399.097 229.655 418.931Z" fill="black"/>
<path opacity="0.1" d="M282.952 385.651L233.573 402.14L233.747 402.663L283.126 386.174L282.952 385.651Z" fill="black"/>
<path opacity="0.1" d="M292.842 384.01L233.558 406.575L233.753 407.09L293.037 384.525L292.842 384.01Z" fill="black"/>
<path opacity="0.1" d="M301.925 383.931L233.888 411.805L234.097 412.315L302.133 384.441L301.925 383.931Z" fill="black"/>
<path opacity="0.1" d="M311.802 381.544L234.683 416.414L234.909 416.916L312.029 382.047L311.802 381.544Z" fill="black"/>
<path opacity="0.1" d="M320.1 381.556L235.293 418.659L235.513 419.164L320.321 382.061L320.1 381.556Z" fill="black"/>
<path opacity="0.1" d="M338.251 378.471L236.572 422.427L236.79 422.933L338.469 378.976L338.251 378.471Z" fill="black"/>
<path opacity="0.3" d="M83.7917 338.77L180.667 318.385L239.684 329.679L160.301 355.298L83.7917 338.77Z" fill="white"/>
<path d="M353.171 340.053C353.171 340.053 358.18 342.075 355.241 345.199C352.302 348.323 239.667 380.95 239.667 380.95L353.171 340.053Z" fill="#00C6FF"/>
<path d="M401.824 292.943C401.824 292.943 389.351 308.182 399.259 331.233L299.631 374.482L290.07 376.498L285.667 357.215L288.656 332.886V319.57L401.824 292.943Z" fill="#D5D6DB"/>
<path d="M87.2209 283.087L225.109 257.931L407.829 287.064L294.341 327.96L87.2209 283.087Z" fill="#3A3768"/>
<path d="M87.1988 283.087C87.1988 283.087 74.2968 307.543 89.1584 330.131L293.642 374.482C293.642 374.482 280.955 354.984 294.319 327.955L87.1988 283.087Z" fill="#3A3768"/>
<path opacity="0.1" d="M87.1988 283.087C87.1988 283.087 74.2968 307.543 89.1584 330.131L293.642 374.482C293.642 374.482 280.955 354.984 294.319 327.955L229.655 313.945L87.1988 283.087Z" fill="black"/>
<path opacity="0.1" d="M93.3086 291.565C93.3086 291.565 85.9438 309.454 93.3086 321.041Z" fill="black"/>
<path d="M293.664 374.482L407.829 325.724C407.829 325.724 414.208 327.101 410.08 331.784C405.952 336.467 295.866 379.165 295.866 379.165L89.1804 330.131L293.664 374.482Z" fill="#3A3768"/>
<path opacity="0.1" d="M293.664 374.482L407.829 325.724C407.829 325.724 414.208 327.101 410.08 331.784C405.952 336.467 295.866 379.165 295.866 379.165L89.1804 330.131L293.664 374.482Z" fill="black"/>
<path opacity="0.1" d="M284.307 332.886C284.307 332.886 273.299 346.108 284.307 365.942Z" fill="black"/>
<path opacity="0.1" d="M337.608 332.668L288.229 349.157L288.404 349.68L337.782 333.191L337.608 332.668Z" fill="black"/>
<path opacity="0.1" d="M347.505 331.025L288.221 353.589L288.416 354.104L347.701 331.54L347.505 331.025Z" fill="black"/>
<path opacity="0.1" d="M356.58 330.938L288.544 358.812L288.752 359.322L356.788 331.448L356.58 330.938Z" fill="black"/>
<path opacity="0.1" d="M366.464 328.552L289.344 363.421L289.571 363.923L366.69 329.054L366.464 328.552Z" fill="black"/>
<path opacity="0.1" d="M374.754 328.556L289.947 365.66L290.167 366.164L374.974 329.061L374.754 328.556Z" fill="black"/>
<path opacity="0.1" d="M392.908 325.471L291.23 369.428L291.448 369.934L393.127 325.977L392.908 325.471Z" fill="black"/>
<path opacity="0.45" d="M138.449 285.781L235.325 265.396L294.342 276.69L214.959 302.309L138.449 285.781Z" fill="white"/>
<path d="M407.829 287.064C407.829 287.064 412.832 289.086 409.898 292.205C406.965 295.323 294.341 327.955 294.341 327.955L407.829 287.064Z" fill="#3A3768"/>
<path d="M406.998 232.323C406.998 232.323 394.519 259.688 404.427 282.734L304.8 313.862L295.261 315.884L290.857 296.601L293.802 272.266V258.95L406.998 232.323Z" fill="#D5D6DB"/>
<path d="M92.4114 222.472L230.305 197.311L413.025 226.445L299.532 267.341L92.4114 222.472Z" fill="#FE006B"/>
<path d="M92.4114 222.467C92.4114 222.467 79.4928 246.923 94.3544 269.512L298.838 313.862C298.838 313.862 286.146 294.364 299.51 267.341L92.4114 222.467Z" fill="#FE006B"/>
<path opacity="0.1" d="M92.4114 222.467C92.4114 222.467 79.4928 246.923 94.3544 269.512L298.838 313.862C298.838 313.862 286.146 294.364 299.51 267.341L92.4114 222.467Z" fill="black"/>
<path opacity="0.1" d="M98.5046 230.946C98.5046 230.946 91.1344 248.84 98.5046 260.421Z" fill="black"/>
<path d="M298.86 313.862L413.019 277.225C413.019 277.225 419.404 278.602 415.276 283.285C411.148 287.968 301.062 318.545 301.062 318.545L94.3764 269.511L298.86 313.862Z" fill="#FE006B"/>
<path opacity="0.1" d="M298.86 313.862L413.019 277.225C413.019 277.225 419.404 278.602 415.276 283.285C411.148 287.968 301.062 318.545 301.062 318.545L94.3764 269.511L298.86 313.862Z" fill="black"/>
<path opacity="0.1" d="M289.503 272.266C289.503 272.266 278.495 285.489 289.503 305.322Z" fill="black"/>
<path opacity="0.1" d="M342.805 272.047L293.427 288.536L293.601 289.059L342.98 272.57L342.805 272.047Z" fill="black"/>
<path opacity="0.1" d="M352.699 270.407L293.415 292.971L293.61 293.486L352.894 270.922L352.699 270.407Z" fill="black"/>
<path opacity="0.1" d="M361.769 270.323L293.732 298.197L293.941 298.707L361.977 270.832L361.769 270.323Z" fill="black"/>
<path opacity="0.1" d="M371.66 267.932L294.54 302.801L294.767 303.303L371.887 268.434L371.66 267.932Z" fill="black"/>
<path opacity="0.1" d="M379.953 267.942L295.146 305.045L295.366 305.55L380.173 268.446L379.953 267.942Z" fill="black"/>
<path opacity="0.1" d="M398.106 264.86L296.427 308.817L296.645 309.322L398.324 265.366L398.106 264.86Z" fill="black"/>
<path opacity="0.3" d="M143.64 225.161L240.515 204.776L299.532 216.071L220.149 241.689L143.64 225.161Z" fill="white"/>
<path d="M413.019 226.445C413.019 226.445 418.028 228.467 415.089 231.59C412.15 234.714 299.532 267.341 299.532 267.341L413.019 226.445Z" fill="#FE006B"/>
<path d="M170.864 59.2023C170.864 59.2023 149.948 57.9406 152.392 72.6286C152.392 72.6286 151.902 75.2235 154.252 76.4025C154.252 76.4025 154.291 75.3007 156.399 75.6808C157.151 75.8102 157.916 75.8472 158.677 75.791C159.704 75.7207 160.679 75.3185 161.457 74.645V74.645C161.457 74.645 167.341 72.2099 169.631 62.5795C169.631 62.5795 171.326 60.4805 171.282 59.9405L167.738 61.4501C167.738 61.4501 168.943 64.0009 167.996 66.1221C167.996 66.1221 167.881 61.5438 167.198 61.6484C167.06 61.6484 165.365 62.5355 165.365 62.5355C165.365 62.5355 167.44 66.9815 165.872 70.21C165.872 70.21 166.466 64.7337 164.716 62.855L162.228 64.3095C162.228 64.3095 164.655 68.8988 163.009 72.6452C163.009 72.6452 163.433 66.8989 161.705 64.6621L159.448 66.4251C159.448 66.4251 161.732 70.9483 160.34 74.0556C160.34 74.0556 160.158 67.3672 158.964 66.8603C158.964 66.8603 156.988 68.6013 156.69 69.3175C156.69 69.3175 158.254 72.6231 157.279 74.3365C157.279 74.3365 156.69 69.8794 156.179 69.8574C156.179 69.8574 154.213 72.8104 154.01 74.8158C154.105 72.9462 154.688 71.1342 155.7 69.5599C154.567 69.7744 153.522 70.3164 152.694 71.1191C152.694 71.1191 152.997 69.031 156.19 68.8492C156.19 68.8492 157.813 66.6069 158.248 66.4747C158.248 66.4747 155.072 66.2047 153.151 67.0586C153.151 67.0586 154.846 65.0918 158.826 65.9568L161.028 64.1387C161.028 64.1387 156.856 63.5878 155.083 64.1993C155.083 64.1993 157.125 62.4583 161.628 63.7255L164.055 62.2765C164.055 62.2765 160.494 61.5107 158.375 61.7862C158.375 61.7862 160.609 60.5796 164.765 61.8853L166.494 61.1085C166.494 61.1085 163.89 60.5962 163.125 60.5135C162.36 60.4309 162.321 60.2215 162.321 60.2215C163.974 59.9499 165.669 60.1405 167.22 60.7725C167.22 60.7725 170.935 59.4337 170.864 59.2023Z" fill="#00C6FF"/>
<path opacity="0.1" d="M465.123 119.574C465.123 119.574 444.207 118.312 446.65 133C446.65 133 446.161 135.595 448.511 136.774C448.511 136.774 448.549 135.672 450.658 136.052C451.41 136.179 452.175 136.216 452.936 136.163C453.953 136.088 454.919 135.686 455.689 135.017V135.017C455.689 135.017 461.578 132.582 463.862 122.951C463.862 122.951 465.558 120.852 465.514 120.312L461.98 121.822C461.98 121.822 463.185 124.373 462.239 126.494C462.239 126.494 462.123 121.915 461.446 122.02C461.308 122.02 459.608 122.907 459.608 122.907C459.608 122.907 461.683 127.353 460.119 130.582C460.119 130.582 460.714 125.105 458.958 123.227L456.47 124.681C456.47 124.681 458.897 129.27 457.252 133.017C457.252 133.017 457.676 127.271 455.947 125.034L453.696 126.797C453.696 126.797 455.975 131.32 454.582 134.427C454.582 134.427 454.401 127.739 453.206 127.232C453.206 127.232 451.236 128.973 450.933 129.689C450.933 129.689 452.496 132.995 451.527 134.708C451.527 134.708 450.933 130.251 450.426 130.229C450.426 130.229 448.461 133.182 448.258 135.187C448.353 133.317 448.938 131.505 449.953 129.932C448.819 130.147 447.773 130.688 446.942 131.491C446.942 131.491 447.25 129.403 450.437 129.221C450.437 129.221 452.061 126.979 452.496 126.841C452.496 126.841 449.326 126.576 447.399 127.43C447.399 127.43 449.094 125.463 453.074 126.328L455.276 124.51C455.276 124.51 451.098 123.959 449.331 124.571C449.331 124.571 451.368 122.83 455.876 124.097L458.298 122.648C458.298 122.648 454.736 121.882 452.617 122.158C452.617 122.158 454.852 120.951 459.008 122.257L460.741 121.48C460.741 121.48 458.132 120.968 457.367 120.885C456.602 120.803 456.564 120.593 456.564 120.593C458.216 120.318 459.912 120.509 461.462 121.144C461.462 121.144 465.189 119.805 465.123 119.574Z" fill="#00FF57"/>
<path opacity="0.1" d="M206.091 149.942C206.091 149.942 196.976 131.028 185.373 140.35C185.373 140.35 182.869 141.187 182.99 143.815C182.99 143.815 183.953 143.314 184.641 145.341C184.898 146.058 185.238 146.742 185.654 147.38C186.217 148.244 187.046 148.902 188.015 149.253C188.015 149.253 193.008 153.209 202.525 150.509C202.525 150.509 205.183 150.966 205.618 150.647L202.58 148.294C202.58 148.294 200.928 150.592 198.628 150.796C198.628 150.796 202.569 148.465 202.145 147.925C202.057 147.815 200.493 146.752 200.493 146.752C200.493 146.752 197.626 150.735 194.048 150.939C194.048 150.939 199.112 148.79 199.893 146.338L197.417 144.873C197.417 144.873 194.593 149.236 190.525 149.622C190.525 149.622 195.743 147.192 196.85 144.592L194.219 143.49C194.219 143.49 191.384 147.688 187.993 147.991C187.993 147.991 193.74 144.57 193.597 143.275C193.597 143.275 191.114 142.405 190.344 142.487C190.344 142.487 188.241 145.457 186.259 145.457C186.259 145.457 189.854 142.763 189.634 142.328C189.634 142.328 186.1 142.052 184.239 142.879C185.916 142.045 187.781 141.665 189.65 141.777C188.909 140.892 187.925 140.243 186.821 139.909C186.821 139.909 188.791 139.16 190.503 141.854C190.503 141.854 193.255 142.179 193.58 142.493C193.58 142.493 192.265 139.595 190.586 138.333C190.586 138.333 193.129 138.846 194.29 142.741L196.96 143.799C196.96 143.799 195.424 139.876 194.009 138.636C194.009 138.636 196.519 139.567 197.615 144.146L200.059 145.556C200.059 145.556 198.996 142.069 197.719 140.355C197.719 140.355 199.86 141.722 200.747 145.986L202.271 147.121C202.271 147.121 201.446 144.592 201.17 143.887C200.895 143.182 201.033 143.038 201.033 143.038C202.08 144.346 202.743 145.92 202.948 147.584C202.948 147.584 205.893 150.107 206.091 149.942Z" fill="#00C6FF"/>
<path opacity="0.1" d="M417.335 92.8535C417.335 92.8535 408.225 73.9398 396.617 83.2617C396.617 83.2617 394.118 84.0991 394.233 86.7271C394.233 86.7271 395.202 86.2312 395.884 88.2532C396.141 88.9728 396.483 89.659 396.903 90.2971C397.464 91.1598 398.291 91.8156 399.259 92.1648V92.1648C399.259 92.1648 404.256 96.1205 413.768 93.4265C413.768 93.4265 416.426 93.8782 416.867 93.5587L413.845 91.2007C413.845 91.2007 412.194 93.5036 409.898 93.7074C409.898 93.7074 413.834 91.3715 413.41 90.8315C413.322 90.7214 411.759 89.658 411.759 89.658C411.759 89.658 408.897 93.6413 405.313 93.8452C405.313 93.8452 410.383 91.6965 411.164 89.2504L408.649 87.7959C408.649 87.7959 405.831 92.1538 401.758 92.545C401.758 92.545 406.976 90.1098 408.087 87.5094L405.451 86.4075C405.451 86.4075 402.616 90.6112 399.231 90.9087C399.231 90.9087 404.972 87.4874 404.829 86.1982C404.829 86.1982 402.352 85.3222 401.581 85.4103C401.581 85.4103 399.479 88.3744 397.492 88.3744C397.492 88.3744 401.092 85.6803 400.871 85.245C400.871 85.245 397.338 84.9696 395.472 85.796C397.148 84.9617 399.014 84.5818 400.882 84.6941C400.144 83.8087 399.162 83.1593 398.059 82.8264C398.059 82.8264 400.029 82.0772 401.741 84.7712C401.741 84.7712 404.493 85.1018 404.818 85.4158C404.818 85.4158 403.502 82.5124 401.818 81.2507C401.818 81.2507 404.361 81.7686 405.522 85.6858L408.198 86.7436C408.198 86.7436 406.662 82.8154 405.247 81.5758C405.247 81.5758 407.757 82.5069 408.847 87.0852L411.296 88.4956C411.296 88.4956 410.229 85.0136 408.952 83.2947C408.952 83.2947 411.098 84.661 411.979 88.9253L413.504 90.0602C413.504 90.0602 412.684 87.5314 412.403 86.8262C412.122 86.121 412.265 85.9833 412.265 85.9833C413.309 87.2926 413.97 88.8659 414.175 90.5285C414.175 90.5285 417.164 93.0298 417.335 92.8535Z" fill="#00C6FF"/>
<path opacity="0.1" d="M446.447 186.408C446.447 186.408 437.337 167.489 425.712 176.811C425.712 176.811 423.213 177.648 423.329 180.276C423.329 180.276 424.298 179.78 424.98 181.802C425.235 182.522 425.575 183.208 425.993 183.846C426.554 184.709 427.381 185.365 428.349 185.714C428.349 185.714 433.347 189.675 442.864 186.976C442.864 186.976 445.517 187.433 445.957 187.108L442.919 184.755C442.919 184.755 441.267 187.058 438.967 187.262C438.967 187.262 442.902 184.926 442.478 184.386C442.39 184.276 440.827 183.213 440.827 183.213C440.827 183.213 437.965 187.196 434.381 187.405C434.381 187.405 439.451 185.251 440.232 182.805L437.75 181.34C437.75 181.34 434.932 185.703 430.859 186.089C430.859 186.089 436.077 183.653 437.189 181.053L434.552 179.951C434.552 179.951 431.717 184.149 428.332 184.452C428.332 184.452 434.079 181.031 433.936 179.736C433.936 179.736 431.453 178.86 430.683 178.948C430.683 178.948 428.58 181.912 426.593 181.912C426.593 181.912 430.193 179.218 429.972 178.783C429.972 178.783 426.439 178.508 424.573 179.334C426.251 178.5 428.119 178.121 429.989 178.232C429.249 177.345 428.265 176.696 427.16 176.365C427.16 176.365 429.13 175.61 430.842 178.309C430.842 178.309 433.594 178.634 433.919 178.948C433.919 178.948 432.604 176.051 430.925 174.783C430.925 174.783 433.468 175.301 434.629 179.218L437.299 180.276C437.299 180.276 435.763 176.348 434.348 175.114C434.348 175.114 436.858 176.04 437.948 180.623L440.398 182.028C440.398 182.028 439.33 178.546 438.053 176.827C438.053 176.827 440.199 178.194 441.086 182.463L442.61 183.565C442.61 183.565 441.785 181.037 441.509 180.331C441.234 179.626 441.372 179.488 441.372 179.488C442.419 180.796 443.08 182.37 443.282 184.034C443.282 184.034 446.276 186.573 446.447 186.408Z" fill="#00C6FF"/>
<path opacity="0.1" d="M111.159 432.55C118.148 432.55 123.813 431.916 123.813 431.134C123.813 430.352 118.148 429.719 111.159 429.719C104.17 429.719 98.5046 430.352 98.5046 431.134C98.5046 431.916 104.17 432.55 111.159 432.55Z" fill="#00C6FF"/>
<path opacity="0.1" d="M28.2039 408.485C35.1927 408.485 40.8583 407.851 40.8583 407.069C40.8583 406.287 35.1927 405.654 28.2039 405.654C21.2151 405.654 15.5496 406.287 15.5496 407.069C15.5496 407.851 21.2151 408.485 28.2039 408.485Z" fill="#00C6FF"/>
<path opacity="0.1" d="M174.392 448.533C181.381 448.533 187.047 447.899 187.047 447.117C187.047 446.335 181.381 445.701 174.392 445.701C167.403 445.701 161.738 446.335 161.738 447.117C161.738 447.899 167.403 448.533 174.392 448.533Z" fill="#00C6FF"/>
<path opacity="0.1" d="M498.429 413.719C505.418 413.719 511.084 413.085 511.084 412.303C511.084 411.521 505.418 410.887 498.429 410.887C491.44 410.887 485.775 411.521 485.775 412.303C485.775 413.085 491.44 413.719 498.429 413.719Z" fill="#00C6FF"/>
<path opacity="0.1" d="M393.127 406.849C400.116 406.849 405.781 406.215 405.781 405.433C405.781 404.651 400.116 404.017 393.127 404.017C386.138 404.017 380.472 404.651 380.472 405.433C380.472 406.215 386.138 406.849 393.127 406.849Z" fill="#00C6FF"/>
<path opacity="0.1" d="M325.006 440.357C333.271 440.357 339.972 439.205 339.972 437.784C339.972 436.363 333.271 435.211 325.006 435.211C316.74 435.211 310.04 436.363 310.04 437.784C310.04 439.205 316.74 440.357 325.006 440.357Z" fill="#00C6FF"/>
<path d="M331.683 411.923C331.683 411.923 310.843 422.7 321.61 435.393C321.61 435.393 322.622 438.148 325.551 437.955C325.551 437.955 324.967 436.886 327.202 436.032C327.997 435.725 328.753 435.323 329.453 434.837C330.4 434.182 331.107 433.236 331.468 432.143V432.143C331.468 432.143 335.728 426.435 332.426 415.873C332.426 415.873 332.855 412.887 332.481 412.403L329.949 415.879C329.949 415.879 332.563 417.636 332.866 420.22C332.866 420.22 330.114 415.884 329.563 416.364C329.442 416.463 328.308 418.265 328.308 418.265C328.308 418.265 332.844 421.344 333.18 425.344C333.18 425.344 330.626 419.741 327.868 418.942L326.288 421.763C326.288 421.763 331.242 424.782 331.793 429.322C331.793 429.322 328.914 423.565 325.975 422.402L324.813 425.383C324.813 425.383 329.591 428.424 330.031 432.203C330.031 432.203 326.035 425.884 324.599 426.082C324.599 426.082 323.696 428.881 323.817 429.746C323.817 429.746 327.191 432.005 327.252 434.225C327.252 434.225 324.136 430.286 323.657 430.545C323.657 430.545 323.459 434.506 324.417 436.567C324.417 436.567 322.766 433.625 323.035 430.545C322.07 431.399 321.375 432.518 321.037 433.762C321.037 433.762 320.14 431.586 323.096 429.581C323.096 429.581 323.377 426.501 323.718 426.121C323.718 426.121 320.52 427.686 319.16 429.603C319.16 429.603 319.661 426.743 323.999 425.322L325.099 422.303C325.099 422.303 320.762 424.143 319.424 425.763C319.424 425.763 320.388 422.925 325.441 421.565L326.938 418.81C326.938 418.81 323.085 420.11 321.202 421.565C321.202 421.565 322.661 419.124 327.4 418L328.617 416.265C328.617 416.265 325.82 417.262 325.039 417.62C324.257 417.978 324.103 417.802 324.103 417.802C325.532 416.592 327.268 415.803 329.118 415.521C329.118 415.521 331.875 412.111 331.683 411.923Z" fill="#00C6FF"/>
<g opacity="0.1">
<path opacity="0.1" d="M313.832 55.2961C314.046 49.2363 312.969 43.2003 310.673 37.589C303.517 38.6578 295.679 33.1319 289.162 36.4376C284.34 38.8837 282.826 45.0157 282.557 50.4204C282.491 51.8473 282.48 53.2742 282.507 54.7011C282.507 54.1943 282.507 53.6819 282.557 53.175C282.81 47.7703 284.324 41.6384 289.162 39.1923C295.679 35.8866 303.506 41.396 310.673 40.3437C312.617 45.0967 313.687 50.1622 313.832 55.2961V55.2961Z" fill="black"/>
<path opacity="0.1" d="M258.382 54.2879C258.476 53.0874 258.452 51.8806 258.31 50.6848C257.727 45.8366 255.079 41.2032 254.601 36.4761C253.984 42.1783 257.611 47.6547 258.31 53.4395C258.382 53.737 258.382 54.0014 258.382 54.2879Z" fill="black"/>
<path opacity="0.1" d="M287.384 103.729C287.043 107.817 286.08 112.186 282.981 114.896C279.882 117.607 274.174 117.458 272.451 113.745C271.901 112.643 271.818 111.359 271.284 110.258C270.062 107.734 267.057 106.754 264.431 105.767C256.973 102.974 249.779 97.5034 248.177 89.6746C248.034 88.9654 247.937 88.2477 247.885 87.5259C247.75 89.166 247.848 90.8169 248.177 92.4293C249.779 100.236 256.984 105.729 264.431 108.522C267.057 109.508 270.062 110.489 271.284 113.012C271.835 114.114 271.928 115.387 272.451 116.5C274.185 120.213 279.904 120.356 282.981 117.651C286.058 114.946 287.015 110.572 287.384 106.484C287.552 104.332 287.609 102.173 287.555 100.016C287.555 101.266 287.483 102.5 287.384 103.729Z" fill="black"/>
<path opacity="0.1" d="M329.899 63.3729C329.899 64.1717 329.899 64.9651 329.899 65.7584C330.207 55.511 333.961 45.2085 333.593 35.1759C333.306 44.4537 330.108 53.9408 329.899 63.3729Z" fill="black"/>
<path opacity="0.1" d="M318.087 104.825C318.222 104.172 318.265 103.502 318.214 102.837C317.992 101.411 317.493 100.042 316.744 98.8092C313.562 92.7489 309.935 86.5453 309.506 79.8184C309.506 80.1048 309.467 80.3693 309.462 80.6778C309.242 88.1375 313.265 94.9636 316.744 101.564C317.335 102.586 317.787 103.683 318.087 104.825V104.825Z" fill="black"/>
<path opacity="0.1" d="M333.064 96.8533C332.653 103.528 330.756 110.026 327.51 115.872C324.604 121.166 319.469 126.439 313.518 125.419C312.985 125.373 312.484 125.146 312.098 124.775C311.987 124.649 311.899 124.503 311.84 124.345C311.774 124.775 311.718 125.21 311.685 125.651C311.572 126.307 311.72 126.982 312.098 127.529C312.484 127.901 312.985 128.128 313.518 128.174C319.469 129.193 324.604 123.921 327.51 118.626C330.756 112.781 332.653 106.283 333.064 99.608C333.13 98.3188 333.136 97.0351 333.097 95.7514C333.086 96.1205 333.086 96.4842 333.064 96.8533Z" fill="black"/>
</g>
<path opacity="0.1" d="M309.308 231.21C311.294 229.717 313.409 228.403 315.627 227.282C318.929 225.69 324.984 221.558 324.984 221.558" fill="black"/>
<path d="M522.588 341.122C522.588 341.122 525.852 345.392 521.079 351.844C516.307 358.295 512.377 363.738 513.962 367.76C513.962 367.76 521.162 355.783 527.019 355.612C532.875 355.441 529.022 348.323 522.588 341.122Z" fill="#00C6FF"/>
<path opacity="0.1" d="M522.588 341.122C522.872 341.535 523.096 341.986 523.254 342.461C528.967 349.183 532.016 355.458 526.518 355.612C521.399 355.761 515.261 364.923 513.792 367.231C513.839 367.418 513.896 367.602 513.962 367.782C513.962 367.782 521.162 355.805 527.019 355.634C532.875 355.463 529.022 348.323 522.588 341.122Z" fill="black"/>
<path d="M528.642 346.566C528.642 348.07 528.472 349.287 528.268 349.287C528.064 349.287 527.888 348.07 527.888 346.566C527.888 345.062 528.097 345.772 528.306 345.772C528.516 345.772 528.642 345.062 528.642 346.566Z" fill="#FFD037"/>
<path d="M530.728 348.362C529.413 349.078 528.262 349.513 528.163 349.331C528.064 349.149 529.05 348.417 530.365 347.678C531.681 346.94 531.163 347.48 531.262 347.678C531.361 347.877 532.049 347.64 530.728 348.362Z" fill="#FFD037"/>
<path d="M505.337 341.122C505.337 341.122 502.073 345.392 506.845 351.844C511.618 358.295 515.548 363.738 513.957 367.76C513.957 367.76 506.763 355.783 500.901 355.612C495.039 355.441 498.919 348.323 505.337 341.122Z" fill="#00C6FF"/>
<path opacity="0.1" d="M505.337 341.122C505.053 341.535 504.829 341.986 504.671 342.461C498.958 349.183 495.908 355.458 501.407 355.612C506.521 355.761 512.663 364.923 514.133 367.231C514.087 367.419 514.028 367.603 513.957 367.782C513.957 367.782 506.763 355.805 500.901 355.634C495.039 355.463 498.919 348.323 505.337 341.122Z" fill="black"/>
<path d="M499.271 346.566C499.271 348.07 499.437 349.287 499.646 349.287C499.855 349.287 500.025 348.07 500.025 346.566C500.025 345.062 499.811 345.772 499.607 345.772C499.403 345.772 499.271 345.062 499.271 346.566Z" fill="#FFD037"/>
<path d="M497.191 348.362C498.506 349.078 499.657 349.513 499.756 349.331C499.855 349.149 498.87 348.417 497.554 347.678C496.239 346.94 496.756 347.48 496.657 347.678C496.558 347.877 495.87 347.64 497.191 348.362Z" fill="#FFD037"/>
<path opacity="0.1" d="M513.962 400.442C532.81 400.442 548.089 398.096 548.089 395.202C548.089 392.309 532.81 389.963 513.962 389.963C495.115 389.963 479.836 392.309 479.836 395.202C479.836 398.096 495.115 400.442 513.962 400.442Z" fill="#00C6FF"/>
<path d="M531.526 362.003L531.361 363.336L531.13 365.22L531.037 366.008L530.805 367.892L530.706 368.68L530.481 370.559L527.866 391.99C527.635 393.902 524.514 395.395 520.744 395.395H507.176C503.405 395.395 500.29 393.902 500.053 391.99L497.438 370.559L497.207 368.68L497.114 367.892L496.883 366.008L496.783 365.22L496.558 363.336L496.393 362.003C496.266 360.901 497.95 360.008 500.086 360.008H527.839C529.969 360.008 531.659 360.917 531.526 362.003Z" fill="#65617D"/>
<path d="M531.361 363.336L531.136 365.22H496.789L496.558 363.336H531.361Z" fill="#9D9CB5"/>
<path d="M531.037 366.008L530.811 367.892H497.114L496.883 366.008H531.037Z" fill="#9D9CB5"/>
<path d="M530.712 368.68L530.481 370.564H497.438L497.213 368.68H530.712Z" fill="#9D9CB5"/>
</g>
<defs>
<clipPath id="clip0">
<rect width="563" height="448" fill="white" transform="translate(0 0.527466)"/>
</clipPath>
</defs>
</svg>
