<svg width="594" height="430" viewBox="0 0 594 430" fill="none" xmlns="http://www.w3.org/2000/svg">
<path d="M378.526 322.358V426.013H118.493C88.8653 426.013 64.7603 402.763 64.7603 374.185C64.7603 345.608 88.8653 322.358 118.493 322.358H378.526Z" fill="#F2F2F2"/>
<path d="M384.914 425.216C384.913 426.273 384.493 427.287 383.744 428.034C382.996 428.782 381.98 429.202 380.922 429.203H113.861C99.3568 429.203 85.4463 423.448 75.1901 413.205C64.9338 402.962 59.1719 389.07 59.1719 374.584C59.1719 360.098 64.9338 346.206 75.1901 335.963C85.4463 325.72 99.3568 319.966 113.861 319.966H380.922C381.981 319.966 382.996 320.386 383.745 321.133C384.493 321.881 384.914 322.895 384.914 323.952C384.914 325.01 384.493 326.024 383.745 326.771C382.996 327.519 381.981 327.939 380.922 327.939H113.861C101.474 327.939 89.5945 332.853 80.8355 341.601C72.0765 350.349 67.1557 362.213 67.1557 374.584C67.1557 386.955 72.0765 398.819 80.8355 407.567C89.5945 416.315 101.474 421.229 113.861 421.229H380.922C381.98 421.23 382.996 421.65 383.744 422.397C384.493 423.145 384.913 424.159 384.914 425.216Z" fill="#3A3768"/>
<path d="M378.527 346.278H99.0914C98.8796 346.278 98.6765 346.194 98.5268 346.045C98.3771 345.895 98.293 345.692 98.293 345.481C98.293 345.269 98.3771 345.067 98.5268 344.917C98.6765 344.767 98.8796 344.683 99.0914 344.683H378.527C378.739 344.683 378.942 344.767 379.091 344.917C379.241 345.067 379.325 345.269 379.325 345.481C379.325 345.692 379.241 345.895 379.091 346.045C378.942 346.194 378.739 346.278 378.527 346.278Z" fill="#CCCCCC"/>
<path d="M378.527 365.415H99.0914C98.8796 365.415 98.6765 365.331 98.5268 365.181C98.3771 365.032 98.293 364.829 98.293 364.617C98.293 364.406 98.3771 364.203 98.5268 364.053C98.6765 363.904 98.8796 363.82 99.0914 363.82H378.527C378.739 363.82 378.942 363.904 379.091 364.053C379.241 364.203 379.325 364.406 379.325 364.617C379.325 364.829 379.241 365.032 379.091 365.181C378.942 365.331 378.739 365.415 378.527 365.415Z" fill="#CCCCCC"/>
<path d="M378.527 384.551H99.0914C98.8796 384.551 98.6765 384.467 98.5268 384.317C98.3771 384.168 98.293 383.965 98.293 383.754C98.293 383.542 98.3771 383.339 98.5268 383.19C98.6765 383.04 98.8796 382.956 99.0914 382.956H378.527C378.739 382.956 378.942 383.04 379.091 383.19C379.241 383.339 379.325 383.542 379.325 383.754C379.325 383.965 379.241 384.168 379.091 384.317C378.942 384.467 378.739 384.551 378.527 384.551Z" fill="#CCCCCC"/>
<path d="M378.527 403.687H99.0914C98.8796 403.687 98.6765 403.603 98.5268 403.454C98.3771 403.304 98.293 403.102 98.293 402.89C98.293 402.679 98.3771 402.476 98.5268 402.326C98.6765 402.177 98.8796 402.093 99.0914 402.093H378.527C378.739 402.093 378.942 402.177 379.091 402.326C379.241 402.476 379.325 402.679 379.325 402.89C379.325 403.102 379.241 403.304 379.091 403.454C378.942 403.603 378.739 403.687 378.527 403.687Z" fill="#CCCCCC"/>
<path d="M579.495 341.87L514.374 422.584L311.891 259.645C288.821 241.081 284.658 207.871 302.611 185.619C320.564 163.366 353.941 160.366 377.011 178.931L579.495 341.87Z" fill="#F2F2F2"/>
<path d="M519.849 425.965C519.184 426.788 518.22 427.314 517.167 427.427C516.115 427.54 515.06 427.231 514.236 426.568L306.281 259.227C294.987 250.138 287.77 236.941 286.219 222.538C284.667 208.135 288.908 193.707 298.009 182.427C307.109 171.148 320.324 163.94 334.745 162.391C349.166 160.842 363.613 165.077 374.908 174.166L582.863 341.508C583.271 341.836 583.611 342.242 583.862 342.701C584.114 343.161 584.272 343.665 584.329 344.186C584.385 344.707 584.338 345.233 584.19 345.736C584.043 346.239 583.797 346.707 583.468 347.115C583.139 347.523 582.733 347.862 582.273 348.113C581.812 348.364 581.307 348.522 580.786 348.578C580.264 348.633 579.737 348.586 579.234 348.438C578.731 348.291 578.262 348.045 577.853 347.716L369.899 180.375C365.123 176.529 359.635 173.66 353.749 171.932C347.863 170.205 341.694 169.652 335.594 170.306C329.494 170.96 323.583 172.808 318.198 175.745C312.813 178.681 308.061 182.648 304.211 187.419C300.362 192.19 297.492 197.671 295.764 203.55C294.037 209.43 293.486 215.591 294.143 221.683C294.801 227.775 296.653 233.677 299.596 239.054C302.538 244.43 306.512 249.175 311.29 253.018L519.245 420.36C520.069 421.023 520.596 421.986 520.709 423.038C520.822 424.089 520.513 425.142 519.849 425.965V425.965Z" fill="#CCCCCC"/>
<path d="M564.467 360.496L346.876 185.4C346.794 185.334 346.727 185.253 346.676 185.161C346.626 185.069 346.594 184.968 346.583 184.864C346.572 184.76 346.581 184.655 346.611 184.554C346.64 184.454 346.69 184.36 346.755 184.279C346.821 184.197 346.902 184.129 346.994 184.079C347.086 184.029 347.187 183.997 347.292 183.986C347.396 183.975 347.501 183.984 347.602 184.014C347.702 184.043 347.796 184.092 347.878 184.158L565.469 359.254C565.551 359.32 565.619 359.401 565.669 359.493C565.719 359.585 565.751 359.686 565.762 359.79C565.774 359.894 565.764 360 565.735 360.1C565.705 360.201 565.656 360.294 565.59 360.376C565.524 360.458 565.443 360.525 565.351 360.576C565.259 360.626 565.158 360.657 565.054 360.669C564.949 360.68 564.844 360.67 564.743 360.641C564.642 360.611 564.549 360.562 564.467 360.496V360.496Z" fill="#CCCCCC"/>
<path d="M552.445 375.397L334.854 200.301C334.689 200.168 334.584 199.976 334.562 199.766C334.539 199.556 334.601 199.345 334.734 199.181C334.867 199.016 335.059 198.911 335.27 198.888C335.48 198.865 335.691 198.927 335.856 199.059L553.447 374.155C553.528 374.221 553.596 374.302 553.647 374.394C553.697 374.486 553.729 374.587 553.74 374.691C553.751 374.795 553.742 374.901 553.713 375.001C553.683 375.102 553.634 375.196 553.568 375.277C553.502 375.359 553.421 375.427 553.329 375.477C553.237 375.527 553.136 375.559 553.031 375.57C552.927 375.581 552.822 375.571 552.721 375.542C552.62 375.512 552.526 375.463 552.445 375.397V375.397Z" fill="#CCCCCC"/>
<path d="M540.423 390.298L322.832 215.202C322.667 215.069 322.561 214.877 322.539 214.667C322.516 214.456 322.578 214.246 322.711 214.081C322.844 213.916 323.037 213.811 323.247 213.789C323.458 213.766 323.669 213.828 323.834 213.96L541.424 389.057C541.506 389.122 541.574 389.203 541.624 389.295C541.674 389.387 541.706 389.488 541.717 389.592C541.728 389.696 541.719 389.801 541.69 389.902C541.66 390.002 541.611 390.096 541.545 390.178C541.479 390.259 541.398 390.327 541.306 390.377C541.214 390.427 541.113 390.459 541.009 390.47C540.905 390.481 540.799 390.472 540.699 390.442C540.598 390.413 540.504 390.364 540.423 390.298V390.298Z" fill="#CCCCCC"/>
<path d="M528.4 405.199L310.809 230.103C310.728 230.038 310.66 229.957 310.609 229.865C310.559 229.773 310.528 229.672 310.516 229.568C310.505 229.464 310.515 229.358 310.544 229.258C310.574 229.157 310.623 229.064 310.688 228.982C310.754 228.901 310.835 228.833 310.927 228.783C311.019 228.733 311.12 228.701 311.225 228.69C311.329 228.679 311.434 228.688 311.535 228.717C311.636 228.747 311.729 228.796 311.811 228.862L529.402 403.958C529.484 404.023 529.552 404.104 529.602 404.196C529.652 404.288 529.684 404.389 529.696 404.493C529.707 404.598 529.697 404.703 529.668 404.804C529.638 404.904 529.589 404.998 529.523 405.08C529.458 405.161 529.376 405.229 529.284 405.279C529.192 405.329 529.091 405.361 528.987 405.372C528.882 405.383 528.777 405.374 528.676 405.344C528.576 405.314 528.482 405.265 528.4 405.199V405.199Z" fill="#CCCCCC"/>
<path d="M593.202 430H0.798387C0.586642 430 0.383568 429.916 0.233842 429.766C0.0841149 429.617 0 429.414 0 429.203C0 428.991 0.0841149 428.788 0.233842 428.639C0.383568 428.489 0.586642 428.405 0.798387 428.405H593.202C593.413 428.405 593.616 428.489 593.766 428.639C593.916 428.788 594 428.991 594 429.203C594 429.414 593.916 429.617 593.766 429.766C593.616 429.916 593.413 430 593.202 430Z" fill="#CCCCCC"/>
<path d="M269.92 311.463L260.792 311.462L256.452 276.302L269.923 276.303L269.92 311.463Z" fill="#FFB8B8"/>
<path d="M254.272 308.857H271.875V319.926H243.189C243.189 318.473 243.476 317.033 244.033 315.69C244.59 314.347 245.406 313.127 246.435 312.099C247.464 311.072 248.686 310.256 250.031 309.7C251.375 309.144 252.817 308.857 254.272 308.857V308.857Z" fill="#2F2E41"/>
<path d="M176.672 311.463L167.545 311.462L163.204 276.302L176.675 276.303L176.672 311.463Z" fill="#FFB8B8"/>
<path d="M161.025 308.857H178.628V319.926H149.942C149.942 318.473 150.229 317.033 150.786 315.69C151.343 314.347 152.159 313.127 153.188 312.099C154.217 311.072 155.439 310.256 156.784 309.7C158.128 309.144 159.57 308.857 161.025 308.857V308.857Z" fill="#2F2E41"/>
<path d="M207.158 50.6581V46.6713C207.158 39.8514 209.871 33.3108 214.7 28.4884C219.528 23.666 226.077 20.9568 232.906 20.9568H232.906C239.735 20.9568 246.284 23.666 251.113 28.4884C255.941 33.3108 258.654 39.8514 258.654 46.6713V50.6581C258.654 55.5748 256.698 60.2902 253.217 63.7668C249.736 67.2434 245.015 69.1965 240.092 69.1965H225.721C223.283 69.1966 220.869 68.7171 218.617 67.7854C216.365 66.8538 214.319 65.4882 212.595 63.7668C210.871 62.0453 209.504 60.0017 208.571 57.7525C207.638 55.5033 207.158 53.0926 207.158 50.6581V50.6581Z" fill="#2F2E41"/>
<path d="M232.906 70.5684C243.736 70.5684 252.515 61.8004 252.515 50.9846C252.515 40.1688 243.736 31.4009 232.906 31.4009C222.076 31.4009 213.297 40.1688 213.297 50.9846C213.297 61.8004 222.076 70.5684 232.906 70.5684Z" fill="#FFB8B8"/>
<path d="M126.244 118.291C127.04 117.541 127.991 116.974 129.03 116.63C130.069 116.286 131.171 116.174 132.258 116.302C133.345 116.429 134.39 116.793 135.321 117.368C136.252 117.943 137.046 118.715 137.646 119.629L154.455 116.453L158.879 126.185L135.077 130.336C133.473 131.241 131.592 131.527 129.79 131.139C127.989 130.751 126.393 129.717 125.304 128.232C124.215 126.747 123.71 124.915 123.883 123.083C124.056 121.251 124.897 119.546 126.244 118.291V118.291Z" fill="#FFB8B8"/>
<path d="M217.619 82.9015L217.838 83.2342L190.273 101.369L143.761 116.203C143.144 116.401 142.615 116.806 142.264 117.349C141.913 117.893 141.761 118.541 141.835 119.183L142.85 127.912C142.895 128.298 143.02 128.671 143.218 129.006C143.415 129.341 143.681 129.631 143.997 129.858C144.314 130.084 144.674 130.242 145.055 130.322C145.437 130.401 145.83 130.4 146.211 130.319L189.986 120.947C192.105 120.497 194.108 119.616 195.872 118.36L226.839 96.3553C227.962 95.5532 228.858 94.4747 229.44 93.2246C230.021 91.9744 230.269 90.5952 230.159 89.221C230.046 87.845 229.576 86.5221 228.795 85.3827C228.014 84.2432 226.95 83.3263 225.707 82.7223C224.463 82.1182 223.084 81.8477 221.705 81.9375C220.325 82.0272 218.993 82.4741 217.838 83.2342L217.619 82.9015Z" fill="#CCCCCC"/>
<path d="M260.956 301.485C260.255 301.485 259.569 301.282 258.983 300.899C258.396 300.517 257.934 299.972 257.652 299.331L215.809 196.074C215.711 195.85 215.547 195.661 215.339 195.533C215.13 195.405 214.888 195.344 214.643 195.357C214.399 195.371 214.165 195.459 213.973 195.61C213.78 195.76 213.638 195.966 213.566 196.2L179.429 296.725C179.284 297.193 179.046 297.626 178.728 297.999C178.41 298.371 178.019 298.674 177.579 298.89C177.139 299.106 176.66 299.23 176.17 299.254C175.681 299.278 175.192 299.202 174.733 299.03L163.285 294.743C162.664 294.512 162.119 294.114 161.71 293.593C161.302 293.071 161.047 292.447 160.972 291.789C155.822 246.984 200.732 133.89 201.186 132.753L201.312 132.438L242.251 141.482L242.336 141.575C258.669 159.37 272.095 271.608 274.62 293.928C274.715 294.734 274.531 295.548 274.1 296.236C273.668 296.924 273.016 297.445 272.248 297.712L262.144 301.281C261.762 301.416 261.36 301.485 260.956 301.485Z" fill="#2F2E41"/>
<path d="M225.682 145.122C215.763 145.122 204.705 143.147 201.301 134.995L201.223 134.808L201.329 134.635C204.015 130.232 207.566 122.722 205.658 121.312C201.898 118.536 200.074 113.968 200.235 107.737C200.587 94.2091 209.817 82.1986 223.202 77.8502H223.202C226.938 76.6561 230.74 75.6784 234.589 74.922C237.395 74.3566 240.292 74.4188 243.071 75.1042C245.85 75.7896 248.443 77.0812 250.663 78.8862C252.911 80.7031 254.728 82.9946 255.983 85.5962C257.239 88.1977 257.902 91.0448 257.925 93.9327C258.065 108.389 255.837 128.524 244.423 142.348C243.888 142.989 243.143 143.422 242.32 143.569C236.829 144.561 231.262 145.081 225.682 145.122Z" fill="#CCCCCC"/>
<path d="M221.992 144.581C222.532 142.647 223.814 141.004 225.56 140.009C227.306 139.014 229.374 138.748 231.316 139.267C231.713 139.378 232.099 139.521 232.472 139.695L245.236 128.094L254.112 134.067L235.86 150.198C235.035 151.682 233.738 152.848 232.173 153.511C230.609 154.174 228.868 154.295 227.226 153.855C226.27 153.594 225.376 153.146 224.594 152.537C223.812 151.928 223.159 151.171 222.673 150.308C222.186 149.446 221.875 148.496 221.758 147.513C221.642 146.53 221.721 145.533 221.992 144.581V144.581Z" fill="#FFB8B8"/>
<path d="M243.214 144.728C242.386 144.729 241.583 144.443 240.942 143.919L235.909 139.811C235.49 139.469 235.153 139.036 234.925 138.545C234.696 138.054 234.582 137.518 234.59 136.977C234.599 136.436 234.729 135.904 234.973 135.421C235.216 134.937 235.566 134.515 235.996 134.186L257.107 118.016C257.357 117.823 257.521 117.54 257.564 117.227C257.606 116.914 257.523 116.597 257.333 116.345L244.303 99.1416C242.789 97.1495 242.03 94.6867 242.16 92.1892C242.289 89.6917 243.3 87.3206 245.012 85.4955V85.4955C246.815 83.5507 249.284 82.3538 251.93 82.1425C254.575 81.9312 257.203 82.7208 259.293 84.3547L259.376 84.4416L272.982 103.899C274.453 105.051 275.638 106.527 276.443 108.212C277.249 109.897 277.654 111.745 277.626 113.612C277.598 115.479 277.138 117.314 276.283 118.975C275.427 120.635 274.199 122.075 272.694 123.183L245.353 144.025C244.734 144.482 243.984 144.728 243.214 144.728Z" fill="#CCCCCC"/>
<path d="M215.537 45.4753V35.7587L232.906 28.1838L249.468 35.7587V45.4753C249.468 45.8982 249.3 46.3039 249 46.6029C248.701 46.902 248.295 47.07 247.871 47.07H217.133C216.71 47.07 216.304 46.902 216.004 46.6029C215.705 46.3039 215.537 45.8982 215.537 45.4753Z" fill="#2F2E41"/>
<path d="M232.109 22.2458C229.555 14.0821 234.918 4.72612 242.848 1.49472C250.777 -1.73668 260.263 0.52217 266.954 5.86093C273.645 11.1997 277.796 19.1961 279.995 27.4621C282.195 35.728 282.612 44.3474 283.018 52.8907C292.76 54.6779 299.387 66.2178 296.013 75.5182C292.638 84.8185 280.147 89.4389 271.52 84.5779C262.893 79.7169 260.395 66.6498 266.621 58.9561C269.567 55.3156 271.212 50.7976 271.297 46.1176C271.382 41.4376 269.9 36.8631 267.088 33.1188C264.276 29.3744 260.293 26.6742 255.77 25.4457C251.248 24.2172 246.444 24.5308 242.12 26.3367C237.319 28.342 231.294 23.1318 232.109 22.2458Z" fill="#2F2E41"/>
<path d="M122.644 80.5984C110.98 80.522 99.4617 78.0026 88.8335 73.2031C88.2009 72.9215 87.6639 72.4622 87.288 71.8812C86.912 71.3002 86.7134 70.6225 86.7163 69.9308V40.8929C86.7174 39.9416 87.0963 39.0296 87.7698 38.3569C88.4433 37.6842 89.3566 37.3059 90.3091 37.3048H154.978C155.931 37.3059 156.844 37.6843 157.518 38.3569C158.191 39.0296 158.57 39.9416 158.571 40.8929V69.9308C158.574 70.6225 158.375 71.3002 158 71.8812C157.624 72.4622 157.087 72.9215 156.454 73.2031C145.826 78.0026 134.308 80.522 122.644 80.5984V80.5984Z" fill="#3A3768"/>
<path d="M122.634 57.0742C122.155 57.0746 121.68 56.9793 121.238 56.7939L69.9564 35.186C69.2951 34.9074 68.7325 34.4373 68.3412 33.8364C67.9498 33.2355 67.7477 32.5313 67.7609 31.8145C67.774 31.0978 68.0018 30.4015 68.415 29.8153C68.8281 29.2291 69.4075 28.7799 70.0786 28.5257L121.361 9.09608C122.187 8.7817 123.1 8.78364 123.925 9.10153L174.521 28.5311C175.188 28.7874 175.763 29.2367 176.174 29.8215C176.584 30.4063 176.81 31.1 176.823 31.8139C176.836 32.5277 176.636 33.2293 176.248 33.8289C175.859 34.4284 175.301 34.8986 174.644 35.1793L124.048 56.7869C123.601 56.9769 123.12 57.0746 122.634 57.0742V57.0742Z" fill="#3A3768"/>
<path d="M92.7039 75.1789C95.3495 75.1789 97.4942 73.037 97.4942 70.3948C97.4942 67.7526 95.3495 65.6107 92.7039 65.6107C90.0583 65.6107 87.9136 67.7526 87.9136 70.3948C87.9136 73.037 90.0583 75.1789 92.7039 75.1789Z" fill="#3F3D56"/>
<path opacity="0.2" d="M174.819 32.1123L124.222 53.7199C123.828 53.8883 123.403 53.9757 122.974 53.9767C122.545 53.9778 122.121 53.8925 121.725 53.7259L70.4435 32.1187C69.7995 31.8538 69.2622 31.3821 68.9165 30.7782C68.6904 31.1698 68.5503 31.605 68.5054 32.0548C68.4606 32.5047 68.5121 32.9589 68.6565 33.3873C68.801 33.8157 69.035 34.2085 69.3431 34.5397C69.6512 34.8709 70.0263 35.1328 70.4435 35.3081L121.725 56.9153C122.121 57.0819 122.545 57.1672 122.974 57.1661C123.403 57.1651 123.828 57.0777 124.222 56.9093L174.819 35.3017C175.234 35.1249 175.606 34.8622 175.912 34.5309C176.218 34.1995 176.45 33.8072 176.593 33.3797C176.736 32.9522 176.787 32.4993 176.742 32.0508C176.696 31.6024 176.557 31.1686 176.331 30.7782C175.988 31.3772 175.456 31.8463 174.819 32.1123V32.1123Z" fill="black"/>
<path d="M93.1065 70.3762C93.3182 70.3762 93.5213 70.2922 93.6711 70.1427C93.8208 69.9931 93.9049 69.7903 93.9049 69.5788V42.8984L120.237 33.3181C120.448 33.3212 120.653 33.2403 120.805 33.0929C120.957 32.9456 121.044 32.7441 121.047 32.5326C121.05 32.3211 120.969 32.1171 120.821 31.9653C120.674 31.8136 120.472 31.7265 120.26 31.7234L93.9287 41.3037C93.7168 41.2988 93.5061 41.3369 93.3094 41.4158C93.1127 41.4946 92.934 41.6125 92.7843 41.7623C92.633 41.9103 92.5128 42.0871 92.4311 42.2822C92.3493 42.4773 92.3075 42.6868 92.3081 42.8984V69.5788C92.3081 69.7903 92.3922 69.9931 92.542 70.1426C92.6917 70.2922 92.8948 70.3762 93.1065 70.3762V70.3762Z" fill="#3F3D56"/>
</svg>
