<svg width="189" height="290" viewBox="0 0 189 290" fill="none" xmlns="http://www.w3.org/2000/svg">
<path opacity="0.1" d="M135.961 272.043L86.5829 288.532L86.7571 289.055L136.136 272.566L135.961 272.043Z" fill="black"/>
<path d="M186.69 208.386C183.09 198.596 163.275 197.676 154.677 200.172C148.567 201.951 135.687 203.957 128.807 204.965L128.361 204.541C129.253 204.276 129.275 203.626 129.165 202.662C129.101 201.391 129.119 200.118 129.22 198.85C133.436 200.161 137.19 197.059 137.19 197.059C142.144 194.855 140.812 185.423 141.759 182.845C142.469 180.917 143.234 169.556 143.575 163.893H143.647L143.685 161.992C143.735 161.171 143.757 160.692 143.757 160.692C143.757 160.692 144.241 146.841 145.188 144.037C146.068 141.459 146.784 128.467 146.894 126.407C146.894 126.231 146.894 126.137 146.894 126.137L146.822 124.936C146.872 124.06 146.894 123.085 146.889 122.06C146.889 117.35 146.399 111.416 146.338 110.457C146.338 110.32 146.338 110.154 146.338 109.956C146.377 107.945 146.123 97.8739 137.564 94.0669C134.41 92.6565 130.618 90.9762 126.947 89.3399C126 81.1585 123.837 73.0211 124.024 64.7791C124.024 63.5395 124.134 62.2999 124.255 61.0658C124.255 61.4239 124.216 61.7875 124.211 62.1677C124.211 62.9665 124.211 63.7709 124.211 64.5698C124.536 54.2617 128.427 43.8986 128.064 33.8109C128.031 34.7971 127.959 35.7888 127.866 36.7805C128.056 33.3684 127.699 29.9479 126.809 26.6487C126.479 25.4863 126.033 24.2852 125.081 23.5084C124.18 22.8828 123.148 22.4736 122.064 22.3129C119.46 21.6456 116.814 21.1523 114.144 20.8364C113.738 19.5933 113.136 18.4233 112.36 17.371C106.779 9.70193 98.5114 2.49567 88.7358 0.842857C83.8315 0.0164518 78.1896 0.705123 74.854 4.21459C74.5056 4.52289 74.1783 4.85419 73.8742 5.20628C72.0798 7.34942 71.3092 10.1647 69.4708 12.3024C69.3497 12.4456 69.2121 12.5778 69.08 12.7156C65.4802 15.9385 59.8713 16.6107 55.8697 19.5031C55.1646 20.0223 54.5037 20.5991 53.8937 21.2275C52.2813 22.8269 50.8354 24.586 49.5783 26.478C47.7784 29.0123 45.929 31.6513 45.3565 34.6759C44.2061 40.7362 48.3288 46.4825 49.0939 52.5814C50.8003 66.2281 35.713 78.3377 38.5698 91.8026C39.332 95.1105 41.0153 98.1344 43.4245 100.524C37.5405 105.857 32.5315 111.03 32.5315 111.03V111.339H31.6013L31.6949 112.441H31.6013L32.1132 118.418L31.6013 127.123C31.6013 127.123 31.6013 127.217 31.6013 127.393V127.437V127.674C31.6013 127.674 31.6013 127.768 31.6013 127.944H31.6344C31.805 131.134 32.482 142.604 33.2857 145.023C34.2324 147.827 34.7112 161.678 34.7112 161.678C34.7112 161.678 35.7571 181.253 36.7148 183.842C37.6726 186.432 36.313 195.836 41.2834 198.056C42.7374 199.173 44.459 199.887 46.2757 200.128C46.0225 202.188 46.1822 203.681 47.0023 204.15C47.3534 204.356 47.7511 204.47 48.1582 204.48C47.821 204.981 47.5211 205.506 47.261 206.05C45.2882 205.844 43.3497 205.387 41.4925 204.69C36.1534 202.486 18.4351 197.527 13.2886 201.015C8.14208 204.502 -4.24256 207.665 1.47638 221.703C7.19533 235.74 9.85941 236.093 9.85941 236.093C11.6198 237.372 13.164 238.925 14.4335 240.693C16.1508 243.277 32.1518 249.189 36.1534 249.189C37.8542 249.163 39.555 249.247 41.2448 249.442C41.2448 249.442 36.902 253.255 37.4799 255.469C38.0579 257.684 36.1589 275.413 36.1589 275.413C36.1589 275.413 40.5623 279.854 42.4448 274.031L42.5108 274.119C42.8631 274.598 44.7676 276.763 48.3509 274.031C49.8174 272.917 51.3751 271.929 53.0075 271.078L70.357 268.62C72.1658 268.507 73.9795 268.494 75.7897 268.582C78.5418 268.808 81.2444 267.177 82.9453 265.915C86.5396 267.282 90.5797 268.775 92.5007 269.32C96.3977 270.422 114.309 275.232 118.497 273.728C119.368 273.381 120.142 272.829 120.754 272.119L124.75 272.245L122.879 272.62C122.879 272.62 126.523 272.681 131.477 272.747L131.267 272.868L137.482 272.813C146.575 272.896 156.791 272.923 158.134 272.62C160.236 272.152 171.162 272.482 174.382 272.62H175.28C175.28 272.62 187.284 270.224 182.331 258.031C178.522 248.665 166.814 245.944 161.618 245.194C163.082 244.902 164.343 244.677 165.179 244.544C168.807 243.993 175.852 240.688 176.425 239.558C176.997 238.429 182.903 235.151 184.428 233.283C185.952 231.416 190.306 218.177 186.69 208.386ZM87.2551 235.784L86.6662 235.977L86.2698 236.11L85.5103 236.859C84.9048 236.451 84.2553 236.021 83.5783 235.581C84.7727 235.652 86.0002 235.724 87.2551 235.784Z" fill="url(#paint0_linear)"/>
<path d="M122.35 177.694C122.35 177.694 130.772 199.731 135.561 197.527C140.349 195.324 139.05 185.958 139.964 183.39C140.878 180.823 141.891 161.353 141.891 161.353C141.891 161.353 142.353 147.579 143.267 144.792C144.114 142.23 144.802 129.31 144.918 127.277C144.918 127.101 144.918 127.007 144.918 127.007L144.01 111.03L138.869 109.747L126.947 114.154L125.295 123.592L124.651 127.277L124.376 128.848L122.35 177.694Z" fill="#BE6F72"/>
<path opacity="0.1" d="M125.125 174.002C125.125 174.002 133.161 180.586 135.583 181.165C138.005 181.743 139.491 186.878 139.491 186.878" fill="black"/>
<path d="M56.4917 178.658C56.4917 178.658 48.0701 200.695 43.2814 198.492C38.4927 196.288 39.7917 186.922 38.878 184.355C37.9643 181.787 36.9515 162.317 36.9515 162.317C36.9515 162.317 36.4891 148.544 35.5754 145.756C34.7278 143.194 34.0397 130.275 33.9241 128.242C33.9241 128.065 33.9241 127.972 33.9241 127.972L34.8378 111.994L39.9788 110.711L51.9011 115.118L53.5524 124.556L54.1964 128.242L54.4716 129.812L56.4917 178.658Z" fill="#BE6F72"/>
<path d="M111.331 60.7242H92.5337V90.0506H111.331V60.7242Z" fill="#3E373A"/>
<path opacity="0.1" d="M111.331 60.7242H92.5337V90.0506H111.331V60.7242Z" fill="black"/>
<path d="M53.1891 200.607C53.1891 200.607 46.7656 207.676 49.149 208.959C51.5323 210.243 66.9498 234.302 66.9498 234.302C66.9498 234.302 117.589 240.545 127.139 231.179C136.689 221.813 136.496 205.081 136.496 205.081C136.496 205.081 128.823 206.734 127.987 205.835C127.15 204.937 122.554 200.607 122.554 200.607C122.554 200.607 57.5926 196.662 53.1891 200.607Z" fill="#4B4B5B"/>
<path opacity="0.02" d="M53.1891 200.607C53.1891 200.607 46.7656 207.676 49.149 208.959C51.5323 210.243 66.9498 234.302 66.9498 234.302C66.9498 234.302 117.589 240.545 127.139 231.179C136.689 221.813 136.496 205.081 136.496 205.081C136.496 205.081 128.823 206.734 127.987 205.835C127.15 204.937 122.554 200.607 122.554 200.607C122.554 200.607 57.5926 196.662 53.1891 200.607Z" fill="black"/>
<path d="M144.351 111.262L127.838 124.484L122.846 124.848L121.013 124.98L90.2274 127.239L58.3026 124.903L53.5524 124.556L47.4977 124.115L34.8379 111.994C34.8379 111.994 43.7989 102.386 51.648 95.9016C54.7414 93.3397 57.6641 91.2682 59.7943 90.4528L60.1576 90.3261C61.4974 89.8031 62.6936 88.9684 63.6473 87.8909C69.8451 81.4946 75.575 65.7102 75.575 65.7102C75.575 65.7102 102.915 51.5732 99.6123 70.1177C96.3097 88.6623 111.903 84.0785 111.903 84.0785L117.044 86.4254L119.075 87.3565L124.255 89.7311L135.941 95.0972C145.111 99.3229 144.351 111.262 144.351 111.262Z" fill="#BE6F72"/>
<path opacity="0.1" d="M88.945 80.8113C102.524 80.8113 113.533 69.7929 113.533 56.201C113.533 42.6091 102.524 31.5906 88.945 31.5906C75.3656 31.5906 64.3573 42.6091 64.3573 56.201C64.3573 69.7929 75.3656 80.8113 88.945 80.8113Z" fill="black"/>
<path opacity="0.1" d="M144.39 128.792H33.9241C33.9241 128.616 33.9241 128.522 33.9241 128.522L34.8378 112.545C34.8378 112.545 43.7988 102.937 51.6479 96.4524L121.002 93.6978L124.227 90.293L135.913 95.6591C145.089 99.8793 144.351 111.818 144.351 111.818C144.351 111.818 145.606 125.652 144.39 128.792Z" fill="black"/>
<path d="M144.39 128.242H33.9241C33.9241 128.065 33.9241 127.972 33.9241 127.972L34.8378 111.994C34.8378 111.994 43.7988 102.386 51.6479 95.9015L121.002 93.1469L124.227 89.7421L135.913 95.1082C145.089 99.3284 144.351 111.267 144.351 111.267C144.351 111.267 145.606 125.101 144.39 128.242Z" fill="#E7C7CA"/>
<path opacity="0.1" d="M71.2377 83.4393C71.2377 83.4393 88.6642 105.664 111.876 82.9821C135.087 60.3 114.446 133.575 114.446 133.575L64.3573 139.525L71.2377 83.4393Z" fill="black"/>
<path d="M71.2377 84.5412C71.2377 84.5412 88.6642 106.766 111.876 84.0839C135.087 61.4018 114.446 134.677 114.446 134.677L64.3573 140.627L71.2377 84.5412Z" fill="#E7C7CA"/>
<path opacity="0.1" d="M119.048 88.4419L120.892 116.589L122.868 125.955L124.376 133.117C124.376 133.117 128.229 188.211 127.128 190.966C126.027 193.72 127.679 195.924 127.91 197.39C128.141 198.855 127.679 202.535 127.86 204.188C128.042 205.841 127.86 206.574 123.644 205.984C119.428 205.395 113.549 204.37 113.549 204.37C113.549 204.37 98.6875 205.472 93.552 203.637C88.4165 201.803 78.6905 201.797 78.6905 201.797C78.6905 201.797 64.0105 202.166 59.2438 201.615C54.4771 201.064 51.9011 207.494 48.7857 205.654C45.6703 203.814 52.4515 186.007 54.6533 180.862C56.855 175.716 51.7195 162.681 51.7195 162.681L58.3246 126.005L59.7943 117.691V91.5547L60.1575 91.428C61.4974 90.905 62.6936 90.0702 63.6473 88.9928L65.2985 115.295L117.039 117.135V87.5328" fill="black"/>
<path d="M119.048 87.34L120.892 115.487L122.868 124.853L124.376 132.015C124.376 132.015 128.229 187.109 127.128 189.864C126.027 192.618 127.679 194.822 127.91 196.288C128.141 197.753 127.679 201.433 127.86 203.086C128.042 204.739 127.86 205.472 123.644 204.882C119.428 204.293 113.549 203.268 113.549 203.268C113.549 203.268 98.6875 204.37 93.552 202.535C88.4165 200.701 78.6905 200.695 78.6905 200.695C78.6905 200.695 64.0105 201.064 59.2438 200.513C54.4771 199.962 51.9011 206.392 48.7857 204.552C45.6703 202.712 52.4515 184.905 54.6533 179.76C56.855 174.614 51.7195 161.579 51.7195 161.579L58.3246 124.903L59.7943 116.589V90.4527L60.1575 90.326C61.4974 89.803 62.6936 88.9683 63.6473 87.8909L65.2985 114.193L117.039 116.033V86.4309" fill="#E7C7CA"/>
<path opacity="0.1" d="M124.998 28.5991C124.684 27.4476 124.249 26.2521 123.347 25.4808C122.485 24.8612 121.489 24.4536 120.44 24.2907C117.93 23.63 115.377 23.1403 112.8 22.8253C112.432 21.6019 111.875 20.4438 111.149 19.3929C105.755 11.7679 97.7738 4.57822 88.3835 2.95296C83.4682 2.09901 77.7712 2.86481 74.6228 6.7434C72.8945 8.87553 72.1514 11.7018 70.4065 13.7954C67.0434 17.8613 60.9722 18.3627 56.7339 21.5085C54.4716 23.1613 52.8313 25.5579 51.2296 27.8829C49.4957 30.4006 47.7124 33.0231 47.1619 36.0312C46.0611 42.0419 50.0297 47.7717 50.7617 53.8375C52.413 67.4071 37.8817 79.4451 40.6283 92.8328C42.2301 100.64 49.4352 106.138 56.888 108.926C59.5135 109.912 62.5134 110.893 63.7408 113.416C64.2912 114.518 64.3848 115.79 64.9023 116.903C66.6416 120.617 72.3605 120.76 75.4319 118.055C78.5033 115.35 79.4721 110.975 79.8353 106.893C81.3105 89.0644 74.177 71.451 75.0081 53.5786C75.2558 48.1739 76.775 42.0419 81.6132 39.5958C88.1248 36.2902 95.9574 41.7995 103.124 40.7472C106.515 49.0065 107.235 58.122 105.183 66.8121C104.043 71.5667 102.073 76.178 101.93 81.0813C101.715 88.5465 105.738 95.3671 109.217 101.967C109.964 103.202 110.463 104.57 110.687 105.995C110.742 107.441 110.473 108.881 109.9 110.209C107.935 115.504 104.544 120.418 104.159 126.054C104.046 126.712 104.194 127.388 104.572 127.939C104.959 128.306 105.46 128.531 105.992 128.578C111.936 129.597 117.077 124.324 119.978 119.03C123.212 113.182 125.097 106.684 125.493 100.012C126.093 88.7945 122.075 77.7592 122.323 66.5311C122.609 53.7659 128.372 40.9125 124.998 28.5991Z" fill="black"/>
<path d="M125.548 28.0481C125.235 26.8967 124.8 25.7011 123.897 24.9298C123.035 24.3103 122.04 23.9026 120.991 23.7398C118.48 23.079 115.928 22.5894 113.351 22.2743C112.983 21.0509 112.426 19.8928 111.7 18.842C106.305 11.217 98.3242 4.02726 88.9339 2.40199C84.0186 1.54804 78.3217 2.31384 75.1732 6.19244C73.4449 8.32457 72.7018 11.1509 70.957 13.2444C67.5939 17.3104 61.5226 17.8117 57.2843 20.9576C55.0221 22.6104 53.3818 25.0069 51.78 27.3319C50.0462 29.8497 48.2628 32.4721 47.7124 35.4803C46.6115 41.491 50.5801 47.2207 51.3122 53.2865C52.9635 66.8561 38.4322 78.8941 41.1788 92.2819C42.7805 100.089 49.9856 105.587 57.4384 108.375C60.064 109.361 63.0638 110.342 64.2913 112.865C64.8417 113.967 64.9353 115.239 65.4527 116.352C67.192 120.066 72.911 120.209 75.9823 117.504C79.0537 114.799 80.0225 110.424 80.3858 106.342C81.8609 88.5135 74.7274 70.9 75.5585 53.0276C75.8062 47.6229 77.3254 41.491 82.1637 39.0448C88.6752 35.7392 96.5078 41.2486 103.674 40.1963C107.066 48.4556 107.786 57.571 105.733 66.2611C104.594 71.0157 102.623 75.627 102.48 80.5304C102.265 87.9956 106.289 94.8162 109.768 101.416C110.514 102.651 111.013 104.019 111.237 105.444C111.292 106.89 111.023 108.33 110.45 109.658C108.485 114.953 105.094 119.867 104.709 125.503C104.596 126.161 104.744 126.837 105.122 127.388C105.51 127.755 106.01 127.98 106.542 128.027C112.487 129.046 117.628 123.773 120.529 118.479C123.763 112.631 125.647 106.133 126.044 99.4606C126.644 88.2435 122.626 77.2082 122.873 65.9801C123.16 53.2149 128.923 40.3616 125.548 28.0481Z" fill="#3E373A"/>
<path d="M113.389 271.987L135.225 272.686L132.093 256.478L115.365 258.07L113.389 271.987Z" fill="#C3C7D9"/>
<path d="M181.048 233.57C179.578 235.404 173.893 238.71 173.342 239.812C172.792 240.914 166.005 244.219 162.515 244.77C159.025 245.321 148.022 247.712 146.002 248.996C144.555 249.922 132.935 252.852 125.301 254.478C123.233 254.967 121.14 255.344 119.031 255.607C115.729 255.789 79.5876 243.487 79.5876 243.487L86.5561 236.324L86.9414 236.192C88.9119 235.526 98.016 232.446 103.069 230.98C108.76 229.327 115.365 222.534 115.365 222.534C115.365 222.534 125.086 219.229 126.374 218.86C127.662 218.491 123.071 206.006 123.071 206.006C123.071 206.006 144.169 203.075 152.426 200.591C160.682 198.106 179.766 199.026 183.25 208.761C186.734 218.496 182.54 231.735 181.048 233.57Z" fill="#4B4B5B"/>
<path d="M84.9047 264.604C84.9047 264.604 80.6885 269.012 76.4667 268.648C72.2449 268.284 57.4824 269.75 57.4824 269.75C54.8072 270.818 52.302 272.271 50.0461 274.064C46.595 276.785 44.7621 274.615 44.4208 274.152L44.3602 274.064C42.5218 279.854 38.3055 275.441 38.3055 275.441C38.3055 275.441 40.1385 257.811 39.577 255.607C39.0156 253.403 43.2043 249.619 43.2043 249.619L48.1582 248.357L60.7079 245.139L78.6904 251.382L84.9047 264.604Z" fill="#E7C7CA"/>
<path opacity="0.1" d="M48.1362 248.357L44.4208 274.152L44.3603 274.064C42.5218 279.854 38.3055 275.441 38.3055 275.441C38.3055 275.441 40.1385 257.811 39.577 255.607C39.0156 253.403 43.2043 249.619 43.2043 249.619L48.1362 248.357Z" fill="black"/>
<path opacity="0.1" d="M74.1054 174.983C74.1054 174.983 83.826 178.289 92.2695 174.983Z" fill="black"/>
<path opacity="0.1" d="M107.291 181.231C107.291 181.231 111.325 183.247 114.446 181.231Z" fill="black"/>
<path opacity="0.1" d="M107.291 186.013C107.291 186.013 114.077 186.922 115.365 185.087Z" fill="black"/>
<path opacity="0.1" d="M105.089 196.288C105.089 196.288 117.837 194.635 121.002 192.431Z" fill="black"/>
<path opacity="0.1" d="M66.1902 192.431C66.1902 192.431 73.3458 196.47 78.6685 196.288Z" fill="black"/>
<path opacity="0.1" d="M125.295 254.478C123.227 254.967 121.134 255.344 119.026 255.607C115.723 255.789 79.5822 243.487 79.5822 243.487L86.5506 236.324L86.9359 236.192C88.0367 236.969 88.9394 237.636 89.5834 238.142C92.6163 240.534 95.5446 237.41 96.6454 237.41C97.7463 237.41 107.285 245.305 107.285 245.305C107.285 245.305 116.092 247.327 117.562 249.161C119.031 250.996 124.167 250.632 125.081 251.916C125.356 252.313 125.389 253.288 125.295 254.478Z" fill="black"/>
<path d="M57.4825 206.756C57.4825 206.756 48.5765 207.268 43.441 205.103C38.3055 202.938 21.2423 197.941 16.2884 201.45C11.3345 204.96 -0.593224 208.061 4.91106 222.022C10.4153 235.983 12.9858 236.346 12.9858 236.346C14.6889 237.625 16.1756 239.169 17.3893 240.919C19.0405 243.492 34.4526 249.365 38.3055 249.365C42.1585 249.365 48.9453 249.365 58.4842 255.976C68.0232 262.588 76.6484 263.326 76.6484 263.326C76.6484 263.326 88.7578 268.284 92.5282 269.386C96.2986 270.488 113.527 275.259 117.567 273.794C121.607 272.328 124.172 263.138 124.172 263.138C124.172 263.138 126.005 254.874 125.086 253.591C124.167 252.307 119.031 252.671 117.567 250.836C116.103 249.001 107.291 246.98 107.291 246.98C107.291 246.98 97.7738 239.079 96.673 239.079C95.5721 239.079 92.6438 242.197 89.6109 239.812C83.5695 235.333 77.2222 231.283 70.6157 227.691C63.6472 224.016 57.4825 206.756 57.4825 206.756Z" fill="#4B4B5B"/>
<path opacity="0.1" d="M39.577 212.083C41.1628 211.759 42.8019 211.806 44.3667 212.219C45.9315 212.633 47.3797 213.403 48.5985 214.469C53.0019 218.143 67.8195 225.521 67.8195 225.521" fill="black"/>
<path opacity="0.1" d="M149.674 211.852C149.674 211.852 130.04 214.827 126.374 218.865Z" fill="black"/>
<path d="M172.241 272.686H171.377C168.273 272.576 157.754 272.246 155.728 272.686C153.345 273.237 121.783 272.686 121.783 272.686L127.954 271.403C127.954 271.403 125.664 263.37 127.117 262.703C127.117 262.703 118.861 257.26 125.086 253.585C131.311 249.911 138.021 251.459 138.021 251.459L153.648 246.159L156.648 245.139C156.648 245.139 174.261 246.059 179.028 258.18C183.795 270.301 172.241 272.686 172.241 272.686Z" fill="#E7C7CA"/>
<path opacity="0.1" d="M172.241 272.686H171.377C176.502 268.455 188.094 255.574 153.648 246.186L156.648 245.167C156.648 245.167 174.261 246.087 179.028 258.208C183.795 270.328 172.241 272.686 172.241 272.686Z" fill="black"/>
<path d="M139.86 258.406C140.392 258.406 140.823 257.974 140.823 257.442C140.823 256.909 140.392 256.478 139.86 256.478C139.328 256.478 138.896 256.909 138.896 257.442C138.896 257.974 139.328 258.406 139.86 258.406Z" fill="#4B4B5B"/>
<path d="M134.262 259.998C134.794 259.998 135.225 259.566 135.225 259.034C135.225 258.502 134.794 258.07 134.262 258.07C133.73 258.07 133.298 258.502 133.298 259.034C133.298 259.566 133.73 259.998 134.262 259.998Z" fill="#4B4B5B"/>
<g opacity="0.1">
<path opacity="0.1" d="M106.988 55.292C107.201 49.2321 106.124 43.1962 103.829 37.5849C96.6729 38.6537 88.8348 33.1278 82.3178 36.4334C77.496 38.8796 75.9823 45.0115 75.7126 50.4162C75.6466 51.8431 75.6356 53.2701 75.6631 54.697C75.6631 54.1901 75.6631 53.6777 75.7126 53.1709C75.9658 47.7662 77.4795 41.6343 82.3178 39.1881C88.8348 35.8825 96.6619 41.3919 103.829 40.3396C105.773 45.0925 106.843 50.1581 106.988 55.292V55.292Z" fill="black"/>
<path opacity="0.1" d="M51.5378 54.2838C51.6321 53.0833 51.6081 51.8764 51.4663 50.6807C50.8828 45.8324 48.2353 41.199 47.7564 36.472C47.1399 42.1742 50.7672 47.6505 51.4663 53.4353C51.5378 53.7328 51.5378 53.9973 51.5378 54.2838Z" fill="black"/>
<path opacity="0.1" d="M80.5399 103.725C80.1987 107.813 79.2354 112.182 76.1365 114.892C73.0376 117.603 67.3297 117.454 65.6068 113.741C65.0564 112.639 64.9738 111.355 64.4399 110.253C63.218 107.73 60.2126 106.749 57.5871 105.763C50.1288 102.97 42.9347 97.4993 41.3329 89.6704C41.1899 88.9612 41.0924 88.2435 41.0412 87.5218C40.9058 89.1618 41.0041 90.8128 41.3329 92.4251C42.9347 100.232 50.1398 105.725 57.5871 108.518C60.2126 109.504 63.218 110.485 64.4399 113.008C64.9903 114.11 65.0839 115.383 65.6068 116.496C67.3407 120.209 73.0596 120.352 76.1365 117.647C79.2134 114.942 80.1711 110.567 80.5399 106.48C80.7075 104.328 80.7645 102.169 80.7106 100.012C80.7106 101.262 80.639 102.496 80.5399 103.725Z" fill="black"/>
<path opacity="0.1" d="M123.055 63.3687C123.055 64.1676 123.055 64.9609 123.055 65.7543C123.363 55.5068 127.117 45.2043 126.748 35.1718C126.462 44.4495 123.264 53.9367 123.055 63.3687Z" fill="black"/>
<path opacity="0.1" d="M111.243 104.821C111.378 104.168 111.421 103.498 111.369 102.832C111.148 101.407 110.648 100.038 109.9 98.805C106.718 92.7447 103.091 86.5412 102.662 79.8142C102.662 80.1007 102.623 80.3651 102.618 80.6737C102.397 88.1334 106.421 94.9595 109.9 101.56C110.491 102.582 110.943 103.679 111.243 104.821V104.821Z" fill="black"/>
<path opacity="0.1" d="M126.22 96.8491C125.809 103.524 123.911 110.022 120.666 115.867C117.76 121.162 112.624 126.434 106.674 125.415C106.141 125.369 105.64 125.142 105.254 124.771C105.142 124.644 105.055 124.499 104.995 124.341C104.929 124.771 104.874 125.206 104.841 125.647C104.727 126.303 104.876 126.977 105.254 127.525C105.64 127.896 106.141 128.124 106.674 128.17C112.624 129.189 117.76 123.917 120.666 118.622C123.911 112.777 125.809 106.279 126.22 99.6038C126.286 98.3146 126.291 97.0309 126.253 95.7473C126.242 96.1164 126.242 96.48 126.22 96.8491Z" fill="black"/>
</g>
<path opacity="0.1" d="M127.117 262.703C127.117 262.703 141.048 268.554 150.235 255.607" stroke="black" stroke-miterlimit="10"/>
<path opacity="0.1" d="M129.858 272.929C129.858 272.929 141.236 265.524 155.728 272.686" stroke="black" stroke-miterlimit="10"/>
<path opacity="0.1" d="M53.701 271.248C53.701 271.248 58.4787 260.461 71.2376 268.686" stroke="black" stroke-miterlimit="10"/>
<path opacity="0.1" d="M38.212 111.719L47.9546 102.904C47.9546 102.904 85.7305 100.425 87.2937 113.278C87.2937 113.278 100.686 98.0392 128.851 101.433L140.768 110.931L107.83 125.399L75.8227 136.511L52.2479 125.95L38.212 111.719Z" fill="black"/>
<path d="M38.212 112.27L47.9546 103.455C47.9546 103.455 85.7305 100.976 87.2937 113.829C87.2937 113.829 100.686 98.5901 128.851 101.984L140.768 111.482L107.83 125.95L75.8227 137.062L52.2479 126.501L38.212 112.27Z" fill="#D5D6DB"/>
<path opacity="0.1" d="M33.9021 113.372L38.2119 164.978L83.8975 167.275L81.9159 115.89L81.8774 115.025L33.9021 113.372Z" fill="black"/>
<path d="M33.9021 112.27L38.2119 163.876L83.8975 166.174L81.9159 114.788L81.8774 113.923L33.9021 112.27Z" fill="#00C6FF"/>
<path opacity="0.1" d="M142.859 112.27L95.7317 119.344V171.182L141.786 164.521L142.859 112.27Z" fill="black"/>
<path d="M142.859 111.168L95.7317 118.242V170.08L141.786 163.419L142.859 111.168Z" fill="#00C6FF"/>
<path opacity="0.3" d="M131.746 123.818L106.289 126.649L106.845 135.332L131.73 132.61L131.746 123.818Z" fill="white"/>
<path d="M40.6889 191.511L43.2814 198.492C43.2814 198.492 47.1344 201.797 51.3507 200.144C55.567 198.492 59.2438 197.671 61.0768 196.062C62.9097 194.453 65.4802 186.371 65.4802 186.371C65.4802 186.371 68.0507 177.556 70.6157 175.352C73.1807 173.148 79.9729 142.786 70.6157 145.756C61.2584 148.725 54.1028 176.272 54.1028 176.272C54.1028 176.272 52.4516 178.289 50.0682 178.476C47.6848 178.663 42.9126 178.107 41.9934 180.129C41.0742 182.151 37.9367 187.473 40.6889 191.511Z" fill="#BE6F72"/>
<path opacity="0.1" d="M95.7317 119.338C93.3188 119.883 90.8122 119.854 88.4123 119.255C86.0123 118.656 83.7857 117.504 81.9104 115.89L83.8975 167.27C83.8975 167.27 88.5761 172.339 95.7317 171.182V119.338Z" fill="black"/>
<path d="M95.7317 118.237C93.3188 118.781 90.8122 118.752 88.4123 118.153C86.0123 117.555 83.7857 116.402 81.9104 114.788L83.8975 166.168C83.8975 166.168 88.5761 171.237 95.7317 170.08V118.237Z" fill="#00C6FF"/>
<path opacity="0.1" d="M95.7317 118.237C93.3188 118.781 90.8122 118.752 88.4123 118.153C86.0123 117.555 83.7857 116.402 81.9104 114.788L83.8975 166.168C83.8975 166.168 88.5761 171.237 95.7317 170.08V118.237Z" fill="black"/>
<path opacity="0.1" d="M96.8326 112.446C96.8326 112.446 116.004 106.579 121.002 107.405Z" fill="black"/>
<path opacity="0.1" d="M75.3879 109.884C75.3879 109.884 56.8054 105.477 53.701 106.727Z" fill="black"/>
<path opacity="0.1" d="M108.92 113.179C108.92 113.179 121.739 108.474 126.374 110.711Z" fill="black"/>
<path opacity="0.1" d="M102.463 231.206C104.45 229.713 106.564 228.398 108.782 227.278C112.085 225.686 118.14 221.554 118.14 221.554" fill="black"/>
<path opacity="0.1" d="M53.701 174.983C53.701 174.983 45.6593 181.567 43.2429 182.145C40.8265 182.724 39.3348 187.858 39.3348 187.858" fill="black"/>
<path d="M138.131 190.53L135.566 197.527C135.566 197.527 131.713 200.833 127.491 199.18C123.27 197.527 119.604 196.706 117.765 195.098C115.927 193.489 113.362 185.407 113.362 185.407C113.362 185.407 110.797 176.592 108.226 174.388C105.656 172.184 98.8691 141.822 108.226 144.792C117.584 147.761 124.739 175.308 124.739 175.308C124.739 175.308 126.391 177.325 128.774 177.512C131.157 177.699 135.929 177.143 136.849 179.165C137.768 181.187 140.883 186.509 138.131 190.53Z" fill="#BE6F72"/>
<path opacity="0.1" d="M133.634 177.661C133.634 177.661 138.891 181.043 138.869 185.087Z" fill="black"/>
<path d="M89.033 79.6048C102.612 79.6048 113.621 68.5864 113.621 54.9945C113.621 41.4025 102.612 30.3841 89.033 30.3841C75.4536 30.3841 64.4454 41.4025 64.4454 54.9945C64.4454 68.5864 75.4536 79.6048 89.033 79.6048Z" fill="#BE6F72"/>
<path d="M73.5935 48.3887C76.5768 47.9205 79.1913 46.185 82.0426 45.1878C88.422 42.9455 95.4785 44.4826 101.935 46.5045C104.412 47.2814 106.927 48.1574 109.525 48.1574C112.123 48.1574 114.881 47.094 116.208 44.8517C117.43 42.7912 117.193 40.1137 116.164 37.9485C115.134 35.7833 113.411 34.0423 111.672 32.4005C105.948 26.9903 98.8471 21.9327 90.9925 22.4837C87.8331 22.7096 84.8112 23.839 81.905 25.0896C78.2455 26.668 74.6834 28.4636 71.2377 30.4668C68.5901 32.0039 63.6858 34.0589 62.1611 36.8686C58.6934 43.1989 68.1993 49.2372 73.5935 48.3887Z" fill="#3E373A"/>
<path opacity="0.1" d="M116.208 42.5378C114.881 44.7801 112.123 45.8434 109.525 45.8434C106.927 45.8434 104.412 45.0005 101.93 44.2237C95.473 42.2017 88.422 40.6591 82.0371 42.9069C79.1914 43.9041 76.5713 45.6616 73.588 46.1024C69.2396 46.7855 62.2382 42.9951 61.4786 38.1744C60.6254 43.7444 68.7442 48.5155 73.588 47.7552C76.5713 47.2869 79.1914 45.5514 82.0371 44.5597C88.422 42.3119 95.473 43.8545 101.93 45.8765C104.412 46.6533 106.922 47.5293 109.525 47.4962C112.129 47.4632 114.881 46.4384 116.208 44.1906C116.895 42.9678 117.166 41.5539 116.978 40.1633C116.892 41.0005 116.63 41.8099 116.208 42.5378Z" fill="black"/>
<defs>
<linearGradient id="paint0_linear" x1="94.0419" y1="277.05" x2="94.0419" y2="0.523312" gradientUnits="userSpaceOnUse">
<stop stop-color="#808080" stop-opacity="0.25"/>
<stop offset="0.54" stop-color="#808080" stop-opacity="0.12"/>
<stop offset="1" stop-color="#808080" stop-opacity="0.1"/>
</linearGradient>
</defs>
</svg>
