<svg width="24" height="25" viewBox="0 0 24 25" fill="none" xmlns="http://www.w3.org/2000/svg">
<path d="M16 21.1447V19.1447C16 18.0838 15.5786 17.0664 14.8284 16.3163C14.0783 15.5661 13.0609 15.1447 12 15.1447H5C3.93913 15.1447 2.92172 15.5661 2.17157 16.3163C1.42143 17.0664 1 18.0838 1 19.1447V21.1447" stroke="white" stroke-width="2" stroke-linecap="round" stroke-linejoin="round"/>
<path d="M8.5 11.1447C10.7091 11.1447 12.5 9.35385 12.5 7.14471C12.5 4.93558 10.7091 3.14471 8.5 3.14471C6.29086 3.14471 4.5 4.93558 4.5 7.14471C4.5 9.35385 6.29086 11.1447 8.5 11.1447Z" stroke="white" stroke-width="2" stroke-linecap="round" stroke-linejoin="round"/>
<path d="M20 8.14471V14.1447" stroke="white" stroke-width="2" stroke-linecap="round" stroke-linejoin="round"/>
<path d="M23 11.1447H17" stroke="white" stroke-width="2" stroke-linecap="round" stroke-linejoin="round"/>
</svg>
